<?xml version="1.0" encoding="utf-8"?>
<!-- Generator: Adobe Illustrator 26.1.0, SVG Export Plug-In . SVG Version: 6.00 Build 0)  -->
<svg version="1.0" id="Capa_1" xmlns="http://www.w3.org/2000/svg" xmlns:xlink="http://www.w3.org/1999/xlink" x="0px" y="0px"
	 viewBox="0 0 850.7 245.7" style="enable-background:new 0 0 850.7 245.7;" xml:space="preserve">
<style type="text/css">
	.st0{fill:#5EBCAF;}
	.st1{enable-background:new    ;}
	.st2{fill:#42402E;}
	.st3{fill:#4B5432;}
	.st4{font-family:'Roboto-Bold';}
	.st5{font-size:97.3974px;}
	.st6{fill:#2B2B2B;}
</style>
<path class="st0" d="M221.2,119.2c-12.7-4-26.3-4.9-39.5-3.9c-27.7,2.2-54,12-80,21.1c-7.3,2.6-14.6,5.2-22,7.3
	c-6.9,1.9-14,3.4-21.1,4.4c-6.1,0.8-12.1,1.2-18.2,1.2c-3.9,0-7.7,3.4-7.5,7.5c0.2,3.8,21.2,29.9,27,32.6c0.3-2.2,0.9-4.5,1.7-6.6
	c1-2.8,2.4-5.8,5-7.4c2.8-1.8,6.3-1.3,9.3-0.4c1.4,0.4,2.7,1,4.1,1.3c1.7,0.4,3.4,0.6,5.1,0.6c6.3,0.2,12.2-1.7,18.1-3.7
	c2.8-0.9,5.6-2,8.2-3.4c1.6-0.8,3-1.8,4.4-2.9c0,0,0,0-0.1,0c-2.1-0.9-3.9-2.3-5.1-4.3c-1-1.7-1.6-3.6-2.1-5.5
	c-1.6-1.9-2.8-4.2-2.6-6.7c0.1-1,0.6-1.9,1.5-2.3c0.8-0.4,2.1-0.2,2.7,0.5c1.4,1.7,2.2,3.6,2.8,5.7c0,0.1,0,0.1,0.1,0.2
	c0.2,0.2,0.5,0.5,0.7,0.7c0.3,0.3,0.6,0.6,1,0.8c0.1,0.1,0.2,0.2,0.3,0.2c0.2,0.1,0.4,0.3,0.5,0.4c1.6,1.1,3.2,2.1,4.9,3.1
	c1,0.6,2,1.1,3,1.7c0.8-0.5,1.7-0.9,2.6-1.2c2.7-1,5.7-1.3,8.6-1.2c2.9,0.2,6.1,0.8,8.6,2.4c2.2,1.5,3.7,3.7,5.9,5.1
	c2.6,1.6,6.1,2.1,9,2.6c3.2,0.6,6.5,0.9,9.8,1.2c7.2,0.7,14.3-0.6,21.5-0.8c7.1-0.2,14.3-0.2,21.3,0.4c4.8,0.4,9.5,1.2,14.2,2.1
	c1.4,0.1,2.7,0.3,4.1,0.5c1.3,0.2,2.7,0.6,3.8,1.2c0.7-0.7,1.4-1.3,2.2-2c1.5-1.3,2.6-2.7,3.5-4.4c2.1-3.9,3.7-8.2,5.2-12.3
	c1.7-4.5,3.3-8.8,4.2-13.5c0.5-2.8,0.8-5.6,1-8.4C240.4,127.2,231.1,122.3,221.2,119.2z"/>
<path class="st0" d="M231.8,131.6c0,0,0,0.1,0,0.2C231.7,131.6,231.7,131.6,231.8,131.6z"/>
<g class="st1">
	<path class="st2" d="M372.9,127.3h-14.3V97.6h-27.8v29.7h-14.3V58h14.3v28.1h27.8V58h14.3V127.3z"/>
	<path class="st2" d="M382.3,101.1c0-5.1,1-9.7,2.9-13.6c2-4,4.8-7.1,8.5-9.3s8-3.3,12.9-3.3c6.9,0,12.6,2.1,17,6.4
		c4.4,4.2,6.8,10,7.3,17.3l0.1,3.5c0,7.9-2.2,14.2-6.6,19c-4.4,4.8-10.3,7.2-17.7,7.2s-13.3-2.4-17.8-7.1
		c-4.4-4.8-6.6-11.2-6.6-19.4V101.1z M396.1,102c0,4.9,0.9,8.6,2.8,11.2c1.8,2.6,4.5,3.9,7.9,3.9c3.3,0,5.9-1.3,7.8-3.8
		c1.9-2.6,2.8-6.6,2.8-12.3c0-4.8-0.9-8.5-2.8-11.1c-1.9-2.6-4.5-4-7.9-4c-3.4,0-6,1.3-7.8,3.9C397,92.5,396.1,96.6,396.1,102z"/>
	<path class="st2" d="M454,127.3h-13.8v-73H454V127.3z"/>
	<path class="st2" d="M465.3,62.5c0-2.1,0.7-3.8,2.1-5.1c1.4-1.3,3.3-2,5.6-2c2.3,0,4.2,0.7,5.6,2c1.4,1.3,2.1,3,2.1,5.1
		c0,2.1-0.7,3.8-2.1,5.1c-1.4,1.3-3.3,2-5.6,2s-4.2-0.7-5.6-2C466,66.3,465.3,64.6,465.3,62.5z M479.9,127.3h-13.8V75.8h13.8V127.3z
		"/>
	<path class="st2" d="M510.4,110.5l9.6-34.7h14.4L517,127.3h-13.1l-17.4-51.5h14.4L510.4,110.5z"/>
	<path class="st2" d="M564.1,128.2c-7.5,0-13.7-2.3-18.4-6.9c-4.7-4.6-7.1-10.8-7.1-18.5v-1.3c0-5.2,1-9.8,3-13.9
		c2-4.1,4.8-7.2,8.5-9.4c3.7-2.2,7.8-3.3,12.5-3.3c7,0,12.6,2.2,16.6,6.7c4,4.4,6.1,10.7,6.1,18.9v5.6h-32.8c0.4,3.4,1.8,6.1,4,8.1
		c2.2,2,5.1,3,8.5,3c5.3,0,9.4-1.9,12.4-5.8l6.8,7.6c-2.1,2.9-4.9,5.2-8.4,6.8C572.3,127.4,568.4,128.2,564.1,128.2z M562.5,85.9
		c-2.7,0-4.9,0.9-6.6,2.8c-1.7,1.8-2.8,4.5-3.3,7.9h19.1v-1.1c-0.1-3.1-0.9-5.4-2.5-7.1C567.7,86.8,565.4,85.9,562.5,85.9z"/>
</g>
<text transform="matrix(1 0 0 1 605.3723 127.276)" class="st3 st4 st5"> </text>
<g class="st1">
	<path class="st0" d="M634.9,112.9c0-2.5,0.7-4.7,2.1-6.8c1.4-2.1,3.9-4.4,7.6-7c-1.6-2.1-2.8-4.1-3.7-6c-0.9-1.9-1.4-3.8-1.4-5.8
		c0-4.1,1.3-7.5,3.9-10.1c2.6-2.6,6.2-3.9,10.6-3.9c4,0,7.2,1.2,9.8,3.6c2.6,2.4,3.8,5.3,3.8,8.9c0,4.2-2.1,8-6.4,11.2l-4.1,3
		l9.2,10.7c1.4-2.8,2.2-6,2.2-9.4h9c0,6.9-1.6,12.5-4.8,16.8l8,9.3h-12l-2.7-3.1c-3.9,2.6-8.4,3.9-13.5,3.9c-5.3,0-9.5-1.4-12.7-4.2
		C636.5,121.1,634.9,117.4,634.9,112.9z M652.8,119.5c2.5,0,4.9-0.7,7.2-2.1l-10.5-12.1l-0.8,0.5c-2.2,1.9-3.3,4-3.3,6.5
		c0,2.1,0.7,3.8,2,5.2C648.9,118.8,650.6,119.5,652.8,119.5z M648.9,87.1c0,1.8,1.1,4.1,3.2,6.9l2.8-1.9c1.4-0.9,2.4-1.8,3-2.7
		c0.5-0.9,0.8-1.9,0.8-3.1s-0.5-2.3-1.4-3.2s-2.1-1.4-3.5-1.4c-1.5,0-2.7,0.5-3.6,1.5C649.4,84.2,648.9,85.5,648.9,87.1z"/>
</g>
<g class="st1">
	<path class="st0" d="M756.5,104.2c-0.5,7.5-3.3,13.3-8.3,17.6c-5,4.3-11.5,6.4-19.6,6.4c-8.9,0-15.9-3-20.9-9
		c-5.1-6-7.6-14.2-7.6-24.6v-4.2c0-6.7,1.2-12.5,3.5-17.6c2.3-5.1,5.7-9,10.1-11.7c4.4-2.7,9.4-4.1,15.2-4.1c8,0,14.4,2.1,19.3,6.4
		c4.9,4.3,7.7,10.3,8.5,18h-14.3c-0.3-4.5-1.6-7.7-3.7-9.7c-2.1-2-5.4-3-9.8-3c-4.8,0-8.3,1.7-10.7,5.1c-2.4,3.4-3.6,8.7-3.6,15.9
		V95c0,7.5,1.1,13,3.4,16.4s5.8,5.2,10.7,5.2c4.4,0,7.7-1,9.9-3c2.2-2,3.4-5.1,3.7-9.3H756.5z"/>
	<path class="st0" d="M762.8,101.1c0-5.1,1-9.7,2.9-13.6c2-4,4.8-7.1,8.5-9.3c3.7-2.2,8-3.3,12.9-3.3c6.9,0,12.6,2.1,17,6.4
		c4.4,4.2,6.8,10,7.3,17.3l0.1,3.5c0,7.9-2.2,14.2-6.6,19c-4.4,4.8-10.3,7.2-17.7,7.2s-13.3-2.4-17.8-7.1
		c-4.4-4.8-6.6-11.2-6.6-19.4V101.1z M776.6,102c0,4.9,0.9,8.6,2.8,11.2c1.8,2.6,4.5,3.9,7.9,3.9c3.3,0,5.9-1.3,7.8-3.8
		c1.9-2.6,2.8-6.6,2.8-12.3c0-4.8-0.9-8.5-2.8-11.1c-1.9-2.6-4.5-4-7.9-4c-3.4,0-6,1.3-7.8,3.9S776.6,96.6,776.6,102z"/>
	<path class="st0" d="M820.8,120.5c0-2.2,0.7-4,2.2-5.3c1.5-1.4,3.3-2,5.5-2c2.3,0,4.1,0.7,5.6,2c1.5,1.4,2.2,3.1,2.2,5.3
		c0,2.2-0.7,3.9-2.2,5.3c-1.5,1.3-3.3,2-5.6,2c-2.3,0-4.1-0.7-5.6-2S820.8,122.7,820.8,120.5z"/>
</g>
<g class="st1">
	<path class="st6" d="M327.1,221.8h-5.4v-27.4h5.4V221.8z"/>
	<path class="st6" d="M338.1,201.5l0.1,2.3c1.7-1.8,4-2.7,6.8-2.7c4.8,0,7.3,2.4,7.4,7.3v13.4h-5.2v-13.2c0-1.3-0.3-2.2-1-2.9
		c-0.6-0.6-1.7-0.9-3.1-0.9c-2.1,0-3.7,0.8-4.7,2.5v14.5h-5.2v-20.3H338.1z"/>
	<path class="st6" d="M389,215.5l3.7-14h5.1l-6.3,20.3h-4.3l-5-14l-4.9,14H373l-6.4-20.3h5.1l3.8,13.9l4.8-13.9h3.9L389,215.5z"/>
	<path class="st6" d="M400.3,211.4c0-2,0.5-3.8,1.4-5.4c0.9-1.6,2.2-2.8,3.8-3.7c1.6-0.9,3.5-1.3,5.6-1.3c3.1,0,5.7,0.9,7.6,2.6
		c2,1.8,3,4.1,3.2,7l0,1.1c0,2-0.4,3.8-1.3,5.4c-0.9,1.6-2.1,2.8-3.8,3.7c-1.6,0.9-3.5,1.3-5.7,1.3c-3.3,0-5.9-1-7.9-2.9
		c-2-1.9-3-4.5-3-7.6V211.4z M405.6,211.8c0,2.1,0.5,3.7,1.5,4.9c1,1.2,2.4,1.8,4.1,1.8c1.8,0,3.1-0.6,4.1-1.8c1-1.2,1.5-3,1.5-5.3
		c0-2.1-0.5-3.7-1.5-4.9c-1-1.2-2.4-1.8-4.1-1.8c-1.7,0-3.1,0.6-4.1,1.8C406.1,207.7,405.6,209.5,405.6,211.8z"/>
	<path class="st6" d="M425.4,211.4c0-2,0.5-3.8,1.4-5.4c0.9-1.6,2.2-2.8,3.8-3.7c1.6-0.9,3.5-1.3,5.6-1.3c3.1,0,5.7,0.9,7.6,2.6
		c2,1.8,3,4.1,3.2,7l0,1.1c0,2-0.4,3.8-1.3,5.4s-2.1,2.8-3.8,3.7c-1.6,0.9-3.5,1.3-5.7,1.3c-3.3,0-5.9-1-7.9-2.9c-2-1.9-3-4.5-3-7.6
		V211.4z M430.6,211.8c0,2.1,0.5,3.7,1.5,4.9c1,1.2,2.4,1.8,4.1,1.8s3.1-0.6,4.1-1.8c1-1.2,1.5-3,1.5-5.3c0-2.1-0.5-3.7-1.5-4.9
		c-1-1.2-2.4-1.8-4.1-1.8c-1.7,0-3.1,0.6-4.1,1.8C431.1,207.7,430.6,209.5,430.6,211.8z"/>
	<path class="st6" d="M450.4,211.5c0-3.1,0.8-5.6,2.5-7.5s3.9-2.8,6.7-2.8c2.5,0,4.5,0.8,6,2.3v-10.4h5.2v28.9H466l-0.3-2.1
		c-1.6,1.7-3.6,2.5-6.2,2.5c-2.7,0-4.9-1-6.6-2.9S450.4,214.8,450.4,211.5z M455.6,211.9c0,2.1,0.5,3.7,1.4,4.8
		c0.9,1.2,2.2,1.7,3.9,1.7c2.1,0,3.7-0.8,4.7-2.5v-8.7c-1-1.6-2.5-2.4-4.6-2.4c-1.7,0-3,0.6-3.9,1.8
		C456.1,207.7,455.6,209.5,455.6,211.9z"/>
	<path class="st6" d="M507.5,215.5l3.7-14h5.1l-6.3,20.3h-4.3l-5-14l-4.9,14h-4.3l-6.4-20.3h5.1l3.8,13.9l4.8-13.9h3.9L507.5,215.5z
		"/>
	<path class="st6" d="M530,222.2c-3.3,0-6-0.9-8-2.7c-2.1-1.8-3.1-4.2-3.1-7.3v-0.6c0-2,0.4-3.8,1.3-5.4c0.9-1.6,2.1-2.8,3.8-3.7
		c1.6-0.9,3.4-1.3,5.4-1.3c3.2,0,5.6,0.9,7.3,2.6c1.7,1.8,2.6,4.3,2.6,7.5v1.8h-15.2c0.2,1.7,0.8,3,1.9,4c1.1,1,2.5,1.5,4.2,1.5
		c2.4,0,4.3-0.8,5.8-2.5l2.8,2.3c-0.9,1.2-2.2,2.2-3.7,2.8C533.7,221.8,532,222.2,530,222.2z M529.4,204.7c-1.4,0-2.6,0.4-3.5,1.3
		c-0.9,0.9-1.4,2.1-1.7,3.7h9.9v-0.3c-0.1-1.5-0.6-2.7-1.4-3.5C532,205.1,530.8,204.7,529.4,204.7z"/>
	<path class="st6" d="M560.9,196.5v4.9h4.1v3.4h-4.1v11.3c0,0.8,0.2,1.3,0.5,1.7c0.3,0.3,1,0.5,1.9,0.5c0.6,0,1.2-0.1,1.8-0.2v3.5
		c-1.2,0.3-2.3,0.4-3.4,0.4c-4,0-6-1.9-6-5.8v-11.5h-3.8v-3.4h3.8v-4.9H560.9z"/>
	<path class="st6" d="M581.1,205.6c-0.7-0.1-1.4-0.2-2.1-0.2c-2.4,0-4,0.8-4.8,2.4v13.9h-5.2v-20.3h5l0.1,2.3c1.3-1.8,3-2.6,5.2-2.6
		c0.7,0,1.4,0.1,1.8,0.3L581.1,205.6z"/>
	<path class="st6" d="M598.5,219.8c-1.5,1.6-3.7,2.4-6.5,2.4c-2.5,0-4.4-0.6-5.7-1.9c-1.3-1.3-1.9-3.2-1.9-5.6v-13.2h5.2v13.1
		c0,2.6,1.2,3.9,3.7,3.9c2.5,0,4.2-0.8,5.1-2.4v-14.6h5.2v20.3h-4.9L598.5,219.8z"/>
	<path class="st6" d="M621.8,216.3c0-0.8-0.4-1.4-1.1-1.9s-2-0.8-3.8-1.1c-1.8-0.3-3.3-0.7-4.4-1.2c-2.6-1.1-3.9-2.7-3.9-4.8
		c0-1.8,0.8-3.2,2.5-4.4s3.8-1.8,6.4-1.8c2.8,0,5,0.6,6.7,1.8c1.7,1.2,2.6,2.8,2.6,4.7h-5.2c0-0.9-0.4-1.6-1.1-2.2s-1.7-0.9-3-0.9
		c-1.1,0-2.1,0.2-2.8,0.7c-0.7,0.5-1.1,1.1-1.1,1.9c0,0.7,0.3,1.2,1,1.6c0.7,0.4,2,0.8,4.1,1.2c2,0.4,3.7,0.9,4.8,1.4
		c1.2,0.5,2,1.2,2.6,2c0.6,0.8,0.8,1.7,0.8,2.8c0,1.8-0.9,3.3-2.6,4.4c-1.7,1.1-4,1.7-6.8,1.7c-1.9,0-3.6-0.3-5.1-0.9
		c-1.5-0.6-2.6-1.4-3.5-2.5c-0.8-1.1-1.2-2.2-1.2-3.4h5.1c0.1,1.1,0.5,1.9,1.4,2.5c0.9,0.6,2,0.9,3.4,0.9c1.4,0,2.4-0.2,3.1-0.7
		C621.5,217.6,621.8,217,621.8,216.3z"/>
	<path class="st6" d="M638.1,196.5v4.9h4.1v3.4h-4.1v11.3c0,0.8,0.2,1.3,0.5,1.7c0.3,0.3,1,0.5,1.9,0.5c0.6,0,1.2-0.1,1.8-0.2v3.5
		c-1.2,0.3-2.3,0.4-3.4,0.4c-4,0-6-1.9-6-5.8v-11.5H629v-3.4h3.8v-4.9H638.1z"/>
</g>
<path class="st2" d="M143,7.8c-26.3,0-50.5,8.9-69.9,23.7c-0.4,0-0.9,0.1-1.3,0.4c-0.9,0.5-1.8,1.4-2.5,2.6
	c-1.5,1.2-2.9,2.5-4.3,3.8c1.3-2.5,2.1-5.1,1.1-6.4c-1.3-1.7-5.1-0.8-8.3,0.7c-1.1-2.2-3.5-4.6-5.4-3.7c-1.4,0.6-2.2,2.5-2.7,4.5
	c-2.9-0.9-6.7-1.2-7.9,0.4c-0.9,1.3-0.1,3.5,1.3,5.4c-0.1,0.1-0.3,0.2-0.4,0.4c-2.2,0.1-4.5,0.7-5.2,2.2c-0.5,1-0.3,2.3,0.4,3.4
	c-0.3,0.2-0.6,0.4-0.8,0.7c-0.9,1.3-0.1,3.5,1.3,5.4c-0.1,0.1-0.3,0.2-0.4,0.4c-2.2,0.1-4.5,0.7-5.2,2.2c-0.7,1.3-0.1,2.9,0.9,4.3
	c-0.8,1.9-1.1,3.7-0.3,4.7c0.4,0.5,0.9,0.7,1.6,0.8c-0.2,0.1-0.4,0.3-0.6,0.5c-0.9,1.3-0.1,3.5,1.3,5.4c-0.1,0.1-0.3,0.2-0.4,0.4
	c-2.2,0.1-4.4,0.7-5.2,2.2c-0.6-0.2-1.2-0.3-1.8,0c-1.4,0.6-2.2,2.5-2.7,4.5c-2.9-0.9-6.7-1.2-7.9,0.4c-0.6,0.9-0.4,2.1,0.2,3.5
	c-0.3,0.7-0.5,1.5-0.7,2.4c-1.7,0.3-3.2,0.9-3.9,2.1c-0.7,1.3-0.1,2.9,0.9,4.3c-0.3,0.8-0.6,1.5-0.7,2.2c-2.6,1.5-4.6,3.5-4.4,5.4
	c0.2,2,2.8,3.5,5.8,4.4c-2.8,4-5,9.3-3,11.2c1.6,1.5,5.3,0.6,8.9-1c0.1,0.2,0.2,0.4,0.4,0.6c-0.9,3.1-0.9,6.4,1,7.7
	c1.4,1,3.6,0.7,5.9-0.2c0,1,0,1.9,0,2.9c0,63.4,51.6,115,115,115s115-51.6,115-115S206.4,7.8,143,7.8z M246,122.9
	c0,17.7-4.5,34.4-12.4,48.9c-8.9-3.2-18.5-4-28-3.8c2.6-10,4.4-20.2,5.1-30.6c0.8-10.7,1.1-21.5,0.2-32.3
	c-0.6-8.1-1.9-16.1-4.3-23.9c-1.9-6.4-4.6-12.6-8-18.4c-0.4-0.7-1.6-2.3-1.8-2.2c-0.1-0.1-0.3-0.1-0.5,0
	c-7.5,4.7-13.9,10.7-19.3,17.6c-5.5,7-9.8,14.9-13.1,23.1c-3.4,8.6-5.7,17.6-7.1,26.7c-1.6,10.9-1.9,21.9-1.6,32.9
	c0.1,2,0.2,4.1,0.3,6.1c-0.9-0.3-1.8-0.6-2.7-1c-1.7-0.7-3.4-1.6-4.9-2.7c-1.5-1.1-2.8-2.5-4.2-3.6c-3.4-2.6-7.4-3.2-11.6-3.3
	c-2.7-0.1-5.6,0-8.1-0.9c-0.8-0.5-1.3-1.1-1.6-1.8c-1.4-2.8-3.6-5.1-6-7c-2.5-2-5.2-3.8-7.5-6.1c-2.4-2.3-4.2-5-5.6-8
	c-1.5-3.1-2.6-6.4-3.4-9.8c-0.7-3.3-1.1-6.8-0.6-10.2c0.4-2.9,1.5-5.8,3.2-8.2c0.8-1.2,1.9-2.2,3-3.2c1.1-0.9,2.2-1.8,3.1-2.8
	c0.9-1.1,1.4-2.4,1.7-3.8c0.2-1.5,0.3-3,0.8-4.5V90c0.2-0.2,0.5-0.3,0.7-0.4c1.2-0.5,2.4-0.8,3.5-1.5c1.1-0.6,2.2-1.5,3-2.5
	c1.8-2.1,2.8-4.5,3.1-7.2c0-0.1,0-0.2,0-0.3c0.1,0,0.1,0,0.2,0c1-0.1,1.9-1.1,2.7-2.2c1.6,1.2,3.9,2.1,5,1.4c0.8-0.6,0.8-2,0.4-3.4
	c0.1-0.1,0.2-0.2,0.3-0.3c1.4,0.4,2.9,0.5,3.7-0.3c0.1-0.1,0.3-0.3,0.4-0.5c1.3,0.1,2.5-0.1,3.2-0.8c1.7-1.4,1.2-4.6,0-7.1
	c2.2-1.4,4.7-3.9,4.1-5.4c-0.4-1.1-2.2-1.5-4.2-1.5c1.2-2.7,1.8-6.1,0.3-6.8c-0.4-0.2-0.9-0.2-1.5,0c0.1-0.2,0.1-0.4,0.1-0.6
	c-0.2-2.1-4.2-2.5-8-2.1c0.3-2.5-0.5-5.7-2.7-5.5c-1.6,0.1-3.5,1.7-5.2,3.6c-0.4-0.4-0.9-0.8-1.4-1.1c1.8-1.2,3.4-2.8,3.2-4
	c-0.3-1.3-2.8-1.9-5-1.8c0-1.6-0.7-3.6-2.1-3.7c-1,0-2,0.9-2.9,2c-1.4-1.3-3.5-2.5-4.7-1.9c-0.9,0.5-1.1,2-0.8,3.5
	c-0.1,0-0.2,0.1-0.3,0.1c-1.3-0.5-2.8-0.8-3.7-0.1c-0.6,0.5-0.8,1.3-0.8,2.1c-0.3,0-0.5,0.1-0.7,0.2c-0.8,0.4-1,1.6-0.9,2.9
	c-0.4,0.1-0.8,0.3-1.1,0.5h-0.1c-0.3-4.5-1.7-9.5-4.3-9.5c-0.7,0-1.4,0.3-2.1,0.9c-0.1-0.3-0.2-0.7-0.4-0.9c-0.4-0.6-1-1-1.8-1.2
	C105.7,25.4,123.8,20,143,20C199.8,19.8,246,66.1,246,122.9z M127.4,191.3c-1.3-0.9-2.6-1.4-4-2c-1.1-1.9-1.9-4-2.2-6.3
	c-0.4-3.3,0.3-6.6-0.1-9.9c-0.3-2.3-1.2-4.3-2.4-6c-2-0.9-6.1-2.9-6.9-4.1c-5.4-8.5-2.7-12.5-2.7-12.5s0.4,5.6,6.8,10.2
	c2.9,2.1,5.6,2.7,7.6,2.7c0.6-0.4,1.3-0.8,2-1.1l0,0c0.9-0.4,1.8-0.7,2.7-0.8c3.3-0.5,6.4,1.1,9.2,2.6c1.5,0.8,3,1.6,4.5,2.3
	c1.1,0.5,2.2,0.9,3.3,1.3c0.7,0.5,1.5,1,2.3,1.5c2.5,1.4,5.3,2.5,8.1,3.2c0.5,6.5,1.1,12.5,4,19.5c-4.9-0.7-12-1.2-17-1.3
	C137.7,190.4,132.6,190.7,127.4,191.3z M99.8,81.7c0.1-0.4,0.2-0.8,0.2-1.3c2.8,0.6,6.1,0.6,8.3,0.1c2.1-0.5,3.9-1.6,5.2-3
	c0.9,0.4,1.9,0.7,3,0.7c0,0.1,0,0.2-0.1,0.3c-0.2,1.6-1.2,3.4-2.6,4.6c-1.5,1.4-4,1.7-5.7,2.8c-2.2,1.5-2.9,3.7-4.1,5.9
	c-0.8,1.5-1.8,2.8-2.9,3.9c-0.4-0.5-0.8-1-1.2-1.5c-0.4-3-1.2-6-2.5-8.8C98.8,84.2,99.9,82.8,99.8,81.7z M57.2,112.9L57.2,112.9
	c-0.2,0-0.4,0.1-0.5,0.1c-0.9,0.1-1.9,0.2-2.8,0.3c-1,0-2.2,0.1-3.2-0.2c-0.1,0-0.2-0.1-0.3-0.1c0,0,0,0-0.1,0l0,0
	c-0.1-0.1-0.2-0.2-0.3-0.3c-0.5-0.5-1-1-1.4-1.5c-0.8-0.8-1.6-1.6-2.5-2.1c-0.6-0.4-1.3-0.7-2-1c0-0.3,0-0.6,0-1
	c0.9-0.4,1.9-0.9,2.7-1.4c1.4,2,4,4.1,5.9,3.1c0.9-0.5,1.5-1.6,1.8-2.9c0.5,1.5,1.1,2.9,1.6,4.4C56.4,111.2,56.8,112.1,57.2,112.9z
	 M88,95.7c0.1-0.1,0.2-0.2,0.3-0.3c1.4,0.4,2.9,0.5,3.7-0.3c0.1-0.1,0.3-0.3,0.4-0.5c0.8,0.1,1.7-0.3,2.4-0.8
	c0.7,4.2,0.6,8.6-0.4,12.8c-0.1,0.3-0.3,0.6-0.4,0.9c-1.4-1.4-3-2.5-4.8-3.3c-3.5-1.6-7.5-2.2-11-4c-0.4-0.2-0.8-0.4-1.2-0.7
	c0.3-0.3,0.9-0.2,1.3-0.4c0.4,0.4,0.9,0.7,1.4,0.7c1-0.1,2.1,0.2,2.8-0.9c1.6,1.2,3.8,0.9,4.9,0.1C88.3,98.6,88.3,97.1,88,95.7z
	 M64.1,107.6c1.9,0.2,3.7,0.3,5.6,0.3c0.7,0,1.4-0.1,2.1-0.2c0.8-0.4,1.5-0.9,2.1-1.5c0.5-0.8,0.8-1.5,1-2c2.7,1.5,5.7,2.4,8.6,3.3
	c2.8,0.9,6,2,7.8,4.5c1.4,1.9,1.4,4.2,1,6.5c-0.1,0.4-0.3,0.8-0.4,1.2c-0.3,0.6-0.6,1.2-0.9,1.7c-0.6,1.1-1.3,2.3-1.4,3.6
	c0,0.2,0,0.3,0,0.5c0,0-0.3,1,1.9,3.3c3.6,3.7,5.6,5.2,6,5.4c-0.1,0-0.2,0-0.3-0.1c-1.5-0.8-2.9-1.6-4.3-2.5c-3-1.9-5.9-4.1-8.6-6.5
	l0,0l0,0c-0.1-0.1-0.2-0.2-0.3-0.3c-0.6-0.6-1.2-1.2-1.9-1.8c-2.2-2-4.6-3.8-7.4-5c-2-0.9-4.1-1.4-6.2-2.1c-2-0.7-3.8-1.8-5.3-3.2
	c-2-1.8-3.5-4-4.7-6.3C60.3,106.6,62.1,107.5,64.1,107.6z M40.3,114.9c0.2-0.1,0.4-0.1,0.6-0.2c1.1-0.6,1.9-1.7,2.4-3
	c0.7,0.8,1.1,1.7,1.2,2.7c1.2,1.9,1.9,4.2,4.4,4.7c0.3,0.1,0.6,0.1,0.9,0.1c1.7-0.3,3.3-1,5-0.7c2.4,0.4,3.8,2.7,5.8,3.8
	c2,1.1,4.4,1.2,6.7,1.4c2.4,0.2,4.8,0.4,6.8,1.9c1.9,1.4,3.2,3.5,4.5,5.4c0.7,1,1.4,2,2.2,2.8c0.9,0.9,1.9,1.7,2.8,2.5
	c1,0.8,2.1,1.7,2.9,2.6c0.9,1,1.7,2.2,2.2,3.5c1.1,2.7,1.1,5.7,0.8,8.6c-0.3,2.9-1.1,5.7-1.4,8.6c-0.2,2.5,0,5.1,1.8,7
	c0.8,0.9,2,1.7,2.2,3s-0.8,2.5-1.8,3.1c-2.7,1.5-6-0.2-8.8-0.3c-1.7,0-3.3,0.6-5.1,0.6c-2-0.2-4-0.6-6-0.9c-1.1-0.2-2.2-0.4-3.4-0.1
	c-2.3,0.6-4.1,2.4-5.1,4.4c-1.2,2.2-1.6,4.7-2.1,7.1c-12.4-17-19.7-37.9-19.7-60.6C40,120.2,40.1,117.6,40.3,114.9z M62,186.4
	c0.4-0.6,0.8-1.1,1.1-1.7c0.5-0.8,1-1.6,1.3-2.5c0.4-0.8,0.7-1.7,1-2.6c0.3-0.8,0.7-1.6,1.4-2.2c0.7-0.6,1.7-0.6,2.5-0.6
	c2.1,0.1,4.2,0.8,6.1,1.7c1.1,0.5,2.1,0.9,3.3,1.3c1.2,0.3,2.4,0.5,3.6,0.6c2.4,0.2,4.9-0.2,7.1-1c2.3-0.8,4.5-2.1,7-2.6
	c1.3-0.2,2.6-0.1,3.8,0.3c1.1,0.4,2.1,1.1,3.1,1.8s2,1.2,3.2,1.6c0.6,0.2,1.2,0.3,1.9,0.4c0.8,1.5,1.4,3.1,1.9,4.6
	c0.9,2.7,2.1,5.5,4,7.6c-1.9,0.3-3.8,0.6-5.8,0.9c-12.4,2.1-25,3.9-37.6,2.4C67.8,193.3,64.8,189.9,62,186.4z M143,225.9
	c-25.1,0-48-9-65.9-23.9c20.8,0.9,41.2-6.1,61.9-6.5c6.5-0.1,12.9,0.5,19.2,1.4c0,0.1,0,0.2,0,0.3c0.4,0,0.7-0.1,1.1-0.1
	c14.7,2.3,29.2,6.7,43.8,9.3C186.2,218.7,165.5,225.9,143,225.9z M208.5,202.3c-4.3-0.7-11.6-3-15.9-3.9c3.6-2.9,9-16.4,11.6-25.4
	c2.7-0.1,5.4-0.1,8.2,0c6.3,0.2,12.7,1.1,18.7,3.2C225.1,186.1,217.5,194.9,208.5,202.3z"/>
<path class="st2" d="M612.4,164.4H439.1l0,0h-16.4c-0.4-1.3-0.8-2.6-1.4-3.9c-4.4-9.8-13.6-15.2-20.6-12c-4.3,1.9-6.8,6.6-7,12.3
	c-1.8-7.1-6.8-12.2-12.4-12c-6.3,0.3-11.3,7.1-11.7,15.7h-32.5c-1.3,0-15.8,0.7-15.8,1.7s14.6,1.7,15.8,1.7h32.5
	c0.8,9.1,6.5,16.1,13.1,15.8c6.4-0.3,11.3-7.2,11.7-15.8h0.1c0.4,1.4,0.8,2.7,1.4,4.1c4.4,9.8,13.6,15.2,20.6,12
	c5.3-2.4,7.8-8.9,6.8-16.1H495l0,0h117.4c1.3,0,15.8-0.7,15.8-1.7S613.7,164.4,612.4,164.4z"/>
<ellipse transform="matrix(0.9274 -0.374 0.374 0.9274 -36.5943 167.6075)" class="st0" cx="413.6" cy="178.1" rx="4.1" ry="2.4"/>
<ellipse class="st0" cx="381" cy="154" rx="3.4" ry="2.5"/>
</svg>
