<?xml version="1.0" encoding="utf-8"?>
<!-- Generator: Adobe Illustrator 26.1.0, SVG Export Plug-In . SVG Version: 6.00 Build 0)  -->
<svg version="1.0" id="Capa_1" xmlns="http://www.w3.org/2000/svg" xmlns:xlink="http://www.w3.org/1999/xlink" x="0px" y="0px"
	 viewBox="0 0 850.7 245.7" style="enable-background:new 0 0 850.7 245.7;" xml:space="preserve">
<style type="text/css">
	.st0{fill:#5EBCAF;}
	.st1{font-family:'NirmalaUI-Bold';}
	.st2{font-size:97.3974px;}
	.st3{fill:#4B5432;}
	.st4{font-size:75px;}
</style>
<path class="st0" d="M231.8,131.6c0,0,0,0.1,0,0.2C231.7,131.6,231.7,131.6,231.8,131.6z"/>
<text transform="matrix(1 0 0 1 310.3723 147.976)"><tspan x="0" y="0" class="st0 st1 st2">Holive</tspan><tspan x="295" y="0" class="st3 st1 st2"> </tspan><tspan x="321.9" y="0" class="st0 st1 st4">&amp;</tspan><tspan x="385.6" y="0" class="st0 st1 st2">Co.</tspan></text>
<path class="st0" d="M143,7.8c-26.3,0-50.5,8.9-69.9,23.7c-0.4,0-0.9,0.1-1.3,0.4c-0.9,0.5-1.8,1.4-2.5,2.6
	c-1.5,1.2-2.9,2.5-4.3,3.8c1.3-2.5,2.1-5.1,1.1-6.4c-1.3-1.7-5.1-0.8-8.3,0.7c-1.1-2.2-3.5-4.6-5.4-3.7c-1.4,0.6-2.2,2.5-2.7,4.5
	c-2.9-0.9-6.7-1.2-7.9,0.4c-0.9,1.3-0.1,3.5,1.3,5.4c-0.1,0.1-0.3,0.2-0.4,0.4c-2.2,0.1-4.5,0.7-5.2,2.2c-0.5,1-0.3,2.3,0.4,3.4
	c-0.3,0.2-0.6,0.4-0.8,0.7c-0.9,1.3-0.1,3.5,1.3,5.4c-0.1,0.1-0.3,0.2-0.4,0.4c-2.2,0.1-4.5,0.7-5.2,2.2c-0.7,1.3-0.1,2.9,0.9,4.3
	c-0.8,1.9-1.1,3.7-0.3,4.7c0.4,0.5,0.9,0.7,1.6,0.8c-0.2,0.1-0.4,0.3-0.6,0.5c-0.9,1.3-0.1,3.5,1.3,5.4c-0.1,0.1-0.3,0.2-0.4,0.4
	c-2.2,0.1-4.4,0.7-5.2,2.2c-0.6-0.2-1.2-0.3-1.8,0c-1.4,0.6-2.2,2.5-2.7,4.5c-2.9-0.9-6.7-1.2-7.9,0.4c-0.6,0.9-0.4,2.1,0.2,3.5
	c-0.3,0.7-0.5,1.5-0.7,2.4c-1.7,0.3-3.2,0.9-3.9,2.1c-0.7,1.3-0.1,2.9,0.9,4.3c-0.3,0.8-0.6,1.5-0.7,2.2c-2.6,1.5-4.6,3.5-4.4,5.4
	c0.2,2,2.8,3.5,5.8,4.4c-2.8,4-5,9.3-3,11.2c1.6,1.5,5.3,0.6,8.9-1c0.1,0.2,0.2,0.4,0.4,0.6c-0.9,3.1-0.9,6.4,1,7.7
	c1.4,1,3.6,0.7,5.9-0.2c0,1,0,1.9,0,2.9c0,63.4,51.6,115,115,115s115-51.6,115-115S206.4,7.8,143,7.8z M246,122.9
	c0,17.7-4.5,34.4-12.4,48.9c-8.9-3.2-18.5-4-28-3.8c2.6-10,4.4-20.2,5.1-30.6c0.8-10.7,1.1-21.5,0.2-32.3
	c-0.6-8.1-1.9-16.1-4.3-23.9c-1.9-6.4-4.6-12.6-8-18.4c-0.4-0.7-1.6-2.3-1.8-2.2c-0.1-0.1-0.3-0.1-0.5,0
	c-7.5,4.7-13.9,10.7-19.3,17.6c-5.5,7-9.8,14.9-13.1,23.1c-3.4,8.6-5.7,17.6-7.1,26.7c-1.6,10.9-1.9,21.9-1.6,32.9
	c0.1,2,0.2,4.1,0.3,6.1c-0.9-0.3-1.8-0.6-2.7-1c-1.7-0.7-3.4-1.6-4.9-2.7c-1.5-1.1-2.8-2.5-4.2-3.6c-3.4-2.6-7.4-3.2-11.6-3.3
	c-2.7-0.1-5.6,0-8.1-0.9c-0.8-0.5-1.3-1.1-1.6-1.8c-1.4-2.8-3.6-5.1-6-7c-2.5-2-5.2-3.8-7.5-6.1c-2.4-2.3-4.2-5-5.6-8
	c-1.5-3.1-2.6-6.4-3.4-9.8c-0.7-3.3-1.1-6.8-0.6-10.2c0.4-2.9,1.5-5.8,3.2-8.2c0.8-1.2,1.9-2.2,3-3.2c1.1-0.9,2.2-1.8,3.1-2.8
	c0.9-1.1,1.4-2.4,1.7-3.8c0.2-1.5,0.3-3,0.8-4.5c0,0,0-0.1,0-0.1c0.2-0.2,0.5-0.3,0.7-0.4c1.2-0.5,2.4-0.8,3.5-1.5
	c1.1-0.6,2.2-1.5,3-2.5c1.8-2.1,2.8-4.5,3.1-7.2c0-0.1,0-0.2,0-0.3c0.1,0,0.1,0,0.2,0c1-0.1,1.9-1.1,2.7-2.2c1.6,1.2,3.9,2.1,5,1.4
	c0.8-0.6,0.8-2,0.4-3.4c0.1-0.1,0.2-0.2,0.3-0.3c1.4,0.4,2.9,0.5,3.7-0.3c0.1-0.1,0.3-0.3,0.4-0.5c1.3,0.1,2.5-0.1,3.2-0.8
	c1.7-1.4,1.2-4.6,0-7.1c2.2-1.4,4.7-3.9,4.1-5.4c-0.4-1.1-2.2-1.5-4.2-1.5c1.2-2.7,1.8-6.1,0.3-6.8c-0.4-0.2-0.9-0.2-1.5,0
	c0.1-0.2,0.1-0.4,0.1-0.6c-0.2-2.1-4.2-2.5-8-2.1c0.3-2.5-0.5-5.7-2.7-5.5c-1.6,0.1-3.5,1.7-5.2,3.6c-0.4-0.4-0.9-0.8-1.4-1.1
	c1.8-1.2,3.4-2.8,3.2-4c-0.3-1.3-2.8-1.9-5-1.8c0-1.6-0.7-3.6-2.1-3.7c-1,0-2,0.9-2.9,2c-1.4-1.3-3.5-2.5-4.7-1.9
	c-0.9,0.5-1.1,2-0.8,3.5c-0.1,0-0.2,0.1-0.3,0.1c-1.3-0.5-2.8-0.8-3.7-0.1c-0.6,0.5-0.8,1.3-0.8,2.1c-0.3,0-0.5,0.1-0.7,0.2
	c-0.8,0.4-1,1.6-0.9,2.9c-0.4,0.1-0.8,0.3-1.1,0.5c0,0-0.1,0-0.1,0c-0.3-4.5-1.7-9.5-4.3-9.5c-0.7,0-1.4,0.3-2.1,0.9
	c-0.1-0.3-0.2-0.7-0.4-0.9c-0.4-0.6-1-1-1.8-1.2c15.4-9.2,33.5-14.6,52.7-14.6C199.8,19.8,246,66.1,246,122.9z M127.4,191.3
	c-1.3-0.9-2.6-1.4-4-2c-1.1-1.9-1.9-4-2.2-6.3c-0.4-3.3,0.3-6.6-0.1-9.9c-0.3-2.3-1.2-4.3-2.4-6c-2-0.9-6.1-2.9-6.9-4.1
	c-5.4-8.5-2.7-12.5-2.7-12.5s0.4,5.6,6.8,10.2c2.9,2.1,5.6,2.7,7.6,2.7c0.6-0.4,1.3-0.8,2-1.1c0,0,0,0,0,0c0.9-0.4,1.8-0.7,2.7-0.8
	c3.3-0.5,6.4,1.1,9.2,2.6c1.5,0.8,3,1.6,4.5,2.3c1.1,0.5,2.2,0.9,3.3,1.3c0.7,0.5,1.5,1,2.3,1.5c2.5,1.4,5.3,2.5,8.1,3.2
	c0.5,6.5,1.1,12.5,4,19.5c-4.9-0.7-12-1.2-17-1.3C137.7,190.4,132.6,190.7,127.4,191.3z M99.8,81.7c0.1-0.4,0.2-0.8,0.2-1.3
	c2.8,0.6,6.1,0.6,8.3,0.1c2.1-0.5,3.9-1.6,5.2-3c0.9,0.4,1.9,0.7,3,0.7c0,0.1,0,0.2-0.1,0.3c-0.2,1.6-1.2,3.4-2.6,4.6
	c-1.5,1.4-4,1.7-5.7,2.8c-2.2,1.5-2.9,3.7-4.1,5.9c-0.8,1.5-1.8,2.8-2.9,3.9c-0.4-0.5-0.8-1-1.2-1.5c-0.4-3-1.2-6-2.5-8.8
	C98.8,84.2,99.9,82.8,99.8,81.7z M57.2,112.9c0,0-0.1,0-0.1,0c-0.1,0-0.3,0.1-0.4,0.1c-0.9,0.1-1.9,0.2-2.8,0.3
	c-1,0-2.2,0.1-3.2-0.2c-0.1,0-0.2-0.1-0.3-0.1c0,0,0,0-0.1,0c0,0,0,0,0,0c-0.1-0.1-0.2-0.2-0.3-0.3c-0.5-0.5-1-1-1.4-1.5
	c-0.8-0.8-1.6-1.6-2.5-2.1c-0.6-0.4-1.3-0.7-2-1c0-0.3,0-0.6,0-1c0.9-0.4,1.9-0.9,2.7-1.4c1.4,2,4,4.1,5.9,3.1
	c0.9-0.5,1.5-1.6,1.8-2.9c0.5,1.5,1.1,2.9,1.6,4.4C56.4,111.2,56.8,112.1,57.2,112.9z M88,95.7c0.1-0.1,0.2-0.2,0.3-0.3
	c1.4,0.4,2.9,0.5,3.7-0.3c0.1-0.1,0.3-0.3,0.4-0.5c0.8,0.1,1.7-0.3,2.4-0.8c0.7,4.2,0.6,8.6-0.4,12.8c-0.1,0.3-0.3,0.6-0.4,0.9
	c-1.4-1.4-3-2.5-4.8-3.3c-3.5-1.6-7.5-2.2-11-4c-0.4-0.2-0.8-0.4-1.2-0.7c0.3-0.3,0.9-0.2,1.3-0.4c0.4,0.4,0.9,0.7,1.4,0.7
	c1-0.1,2.1,0.2,2.8-0.9c1.6,1.2,3.8,0.9,4.9,0.1C88.3,98.6,88.3,97.1,88,95.7z M64.1,107.6c1.9,0.2,3.7,0.3,5.6,0.3
	c0.7,0,1.4-0.1,2.1-0.2c0.8-0.4,1.5-0.9,2.1-1.5c0.5-0.8,0.8-1.5,1-2c2.7,1.5,5.7,2.4,8.6,3.3c2.8,0.9,6,2,7.8,4.5
	c1.4,1.9,1.4,4.2,1,6.5c-0.1,0.4-0.3,0.8-0.4,1.2c-0.3,0.6-0.6,1.2-0.9,1.7c-0.6,1.1-1.3,2.3-1.4,3.6c0,0.2,0,0.3,0,0.5
	c0,0-0.3,1,1.9,3.3c3.6,3.7,5.6,5.2,6,5.4c-0.1,0-0.2,0-0.3-0.1c-1.5-0.8-2.9-1.6-4.3-2.5c-3-1.9-5.9-4.1-8.6-6.5c0,0,0,0,0,0
	c0,0,0,0,0,0c-0.1-0.1-0.2-0.2-0.3-0.3c-0.6-0.6-1.2-1.2-1.9-1.8c-2.2-2-4.6-3.8-7.4-5c-2-0.9-4.1-1.4-6.2-2.1
	c-2-0.7-3.8-1.8-5.3-3.2c-2-1.8-3.5-4-4.7-6.3C60.3,106.6,62.1,107.5,64.1,107.6z M40.3,114.9c0.2-0.1,0.4-0.1,0.6-0.2
	c1.1-0.6,1.9-1.7,2.4-3c0.7,0.8,1.1,1.7,1.2,2.7c1.2,1.9,1.9,4.2,4.4,4.7c0.3,0.1,0.6,0.1,0.9,0.1c1.7-0.3,3.3-1,5-0.7
	c2.4,0.4,3.8,2.7,5.8,3.8c2,1.1,4.4,1.2,6.7,1.4c2.4,0.2,4.8,0.4,6.8,1.9c1.9,1.4,3.2,3.5,4.5,5.4c0.7,1,1.4,2,2.2,2.8
	c0.9,0.9,1.9,1.7,2.8,2.5c1,0.8,2.1,1.7,2.9,2.6c0.9,1,1.7,2.2,2.2,3.5c1.1,2.7,1.1,5.7,0.8,8.6c-0.3,2.9-1.1,5.7-1.4,8.6
	c-0.2,2.5,0,5.1,1.8,7c0.8,0.9,2,1.7,2.2,3c0.2,1.3-0.8,2.5-1.8,3.1c-2.7,1.5-6-0.2-8.8-0.3c-1.7,0-3.3,0.6-5.1,0.6
	c-2-0.2-4-0.6-6-0.9c-1.1-0.2-2.2-0.4-3.4-0.1c-2.3,0.6-4.1,2.4-5.1,4.4c-1.2,2.2-1.6,4.7-2.1,7.1c-12.4-17-19.7-37.9-19.7-60.6
	C40,120.2,40.1,117.6,40.3,114.9z M62,186.4c0.4-0.6,0.8-1.1,1.1-1.7c0.5-0.8,1-1.6,1.3-2.5c0.4-0.8,0.7-1.7,1-2.6
	c0.3-0.8,0.7-1.6,1.4-2.2c0.7-0.6,1.7-0.6,2.5-0.6c2.1,0.1,4.2,0.8,6.1,1.7c1.1,0.5,2.1,0.9,3.3,1.3c1.2,0.3,2.4,0.5,3.6,0.6
	c2.4,0.2,4.9-0.2,7.1-1c2.3-0.8,4.5-2.1,7-2.6c1.3-0.2,2.6-0.1,3.8,0.3c1.1,0.4,2.1,1.1,3.1,1.8c1,0.7,2,1.2,3.2,1.6
	c0.6,0.2,1.2,0.3,1.9,0.4c0.8,1.5,1.4,3.1,1.9,4.6c0.9,2.7,2.1,5.5,4,7.6c-1.9,0.3-3.8,0.6-5.8,0.9c-12.4,2.1-25,3.9-37.6,2.4
	C67.8,193.3,64.8,189.9,62,186.4z M143,225.9c-25.1,0-48-9-65.9-23.9c20.8,0.9,41.2-6.1,61.9-6.5c6.5-0.1,12.9,0.5,19.2,1.4
	c0,0.1,0,0.2,0,0.3c0.4,0,0.7-0.1,1.1-0.1c14.7,2.3,29.2,6.7,43.8,9.3C186.2,218.7,165.5,225.9,143,225.9z M208.5,202.3
	c-4.3-0.7-11.6-3-15.9-3.9c3.6-2.9,9-16.4,11.6-25.4c2.7-0.1,5.4-0.1,8.2,0c6.3,0.2,12.7,1.1,18.7,3.2
	C225.1,186.1,217.5,194.9,208.5,202.3z"/>
<path class="st0" d="M612.4,185.1H439.1v0h-16.4c-0.4-1.3-0.8-2.6-1.4-3.9c-4.4-9.8-13.6-15.2-20.6-12c-4.3,1.9-6.8,6.6-7,12.3
	c-1.8-7.1-6.8-12.2-12.4-12c-6.3,0.3-11.3,7.1-11.7,15.7h-32.5c-1.3,0-15.8,0.7-15.8,1.7s14.6,1.7,15.8,1.7h32.5
	c0.8,9.1,6.5,16.1,13.1,15.8c6.4-0.3,11.3-7.2,11.7-15.8h0.1c0.4,1.4,0.8,2.7,1.4,4.1c4.4,9.8,13.6,15.2,20.6,12
	c5.3-2.4,7.8-8.9,6.8-16.1H495v0h117.4c1.3,0,15.8-0.7,15.8-1.7C628.2,185.9,613.7,185.1,612.4,185.1z"/>
</svg>
